<?xml version="1.0" encoding="UTF-8" standalone="no"?>
<!DOCTYPE svg PUBLIC "-//W3C//DTD SVG 1.1//EN" "http://www.w3.org/Graphics/SVG/1.1/DTD/svg11.dtd">
<svg width="100%" height="100%" viewBox="0 0 2221 928" version="1.1" xmlns="http://www.w3.org/2000/svg" xmlns:xlink="http://www.w3.org/1999/xlink" xml:space="preserve" xmlns:serif="http://www.serif.com/" style="fill-rule:evenodd;clip-rule:evenodd;stroke-linejoin:round;stroke-miterlimit:2;">
    <g transform="matrix(1,0,0,1,-24233.6,-9825.82)">
        <g transform="matrix(2.75367,0,0,2.75367,-57457.1,-25409.6)">
            <g transform="matrix(168.734,0,0,168.734,30482.6,13092.3)">
            </g>
            <text x="29659.4px" y="13092.3px" style="font-family:'Manrope-ExtraBold', 'Manrope';font-weight:800;font-size:168.734px;fill:rgb(42,42,42);">ope<tspan x="29970.5px " y="13092.3px ">n</tspan>Fujin</text>
        </g>
        <g transform="matrix(1,0,0,1,5974.64,1497.97)">
            <path d="M19846.1,8390.08C19850.9,8383.28 19856.3,8376.81 19862.4,8370.73C19919.6,8313.55 20012.4,8313.55 20069.6,8370.73C20126.8,8427.91 20126.8,8520.75 20069.6,8577.93C20063.5,8584 20057,8589.43 20050.2,8594.22L20031.9,8576.71C20056.6,8538.22 20044.3,8479.68 20002.5,8437.83C19960.6,8395.97 19902.1,8383.75 19863.6,8408.38L19846.1,8390.08ZM19904.7,8370.29C19943.7,8369 19986.8,8385.67 20020.7,8419.57C20054.7,8453.48 20071.3,8496.6 20070,8535.57C20097.3,8489.3 20091.1,8428.7 20051.3,8388.98C20011.6,8349.26 19951,8343.03 19904.7,8370.29ZM19893.8,8440.96L19912.1,8459.21L19773.9,8597.42C19746.6,8624.72 19702.2,8624.72 19674.9,8597.42C19647.6,8570.12 19647.6,8525.79 19674.9,8498.49C19702.4,8471.01 19743.6,8469.21 19771.1,8496.69L19780.2,8505.81L19762,8524.06L19752.9,8514.94C19735.8,8497.89 19710.2,8499.69 19693.2,8516.74C19676,8533.97 19676,8561.94 19693.2,8579.17C19710.4,8596.4 19738.4,8596.4 19755.6,8579.17L19893.8,8440.96ZM19979.8,8526.92L19998,8545.17L19906.9,8636.3C19894.4,8648.82 19894.4,8669.16 19906.9,8681.69C19919.4,8694.21 19939.8,8694.21 19952.3,8681.69C19964.7,8669.34 19966.1,8650.81 19953.7,8638.46L19944.6,8629.33L19962.8,8611.08L19972,8620.21C19994.7,8642.98 19993.3,8677.17 19970.6,8699.94C19948,8722.54 19911.3,8722.54 19888.7,8699.94C19866.1,8677.34 19866.1,8640.64 19888.7,8618.04L19979.8,8526.92ZM19962.5,8459.6L19980.7,8477.85L19762.4,8696.17C19750.8,8707.8 19744.5,8720.11 19743.9,8732.18C19743.4,8743.59 19748.3,8754.47 19757.6,8763.78C19773.5,8779.66 19795.9,8781.05 19812.8,8766.23C19833.3,8748.2 19827.6,8721.81 19813.7,8707.12L19804.9,8697.73L19823.7,8680.02L19832.5,8689.41C19855.1,8713.33 19863.3,8756.27 19829.8,8785.63C19802.2,8809.92 19765.4,8808.06 19739.4,8782.03C19724.4,8767.09 19717.4,8749.35 19718.2,8731.05C19718.9,8713.41 19727.1,8694.92 19744.1,8677.92L19962.5,8459.6Z" style="fill:rgb(66,172,192);"/>
        </g>
    </g>
</svg>
