<?xml version="1.0" encoding="UTF-8" standalone="no"?>
<!DOCTYPE svg PUBLIC "-//W3C//DTD SVG 1.1//EN" "http://www.w3.org/Graphics/SVG/1.1/DTD/svg11.dtd">
<svg width="100%" height="100%" viewBox="0 0 2668 1365" version="1.1" xmlns="http://www.w3.org/2000/svg" xmlns:xlink="http://www.w3.org/1999/xlink" xml:space="preserve" xmlns:serif="http://www.serif.com/" style="fill-rule:evenodd;clip-rule:evenodd;stroke-linejoin:round;stroke-miterlimit:2;">
    <g transform="matrix(1,0,0,1,-24054.5,-9603.89)">
        <g transform="matrix(1,0,0,1.2199,0,-2261.9)">
            <rect x="24054.5" y="9726.9" width="2667.95" height="1118.73" style="fill:white;"/>
        </g>
        <g transform="matrix(1,0,0,1,44.6093,-3.52433)">
            <g transform="matrix(2.75367,0,0,2.75367,-57457.1,-25409.6)">
                <path d="M29712.2,13094.8C29703.1,13094.8 29695.1,13092.8 29688.2,13088.7C29681.2,13084.6 29675.8,13078.9 29671.9,13071.6C29668.1,13064.4 29666.1,13056.1 29666.1,13046.7C29666.1,13037.3 29668.1,13029 29672,13021.7C29675.9,13014.4 29681.4,13008.8 29688.4,13004.7C29695.4,13000.7 29703.3,12998.6 29712.2,12998.6C29721.3,12998.6 29729.3,13000.7 29736.3,13004.7C29743.3,13008.8 29748.7,13014.5 29752.6,13021.8C29756.5,13029.1 29758.4,13037.4 29758.4,13046.7C29758.4,13056.1 29756.5,13064.4 29752.6,13071.6C29748.7,13078.9 29743.2,13084.6 29736.2,13088.7C29729.2,13092.8 29721.2,13094.8 29712.2,13094.8ZM29690.4,13046.7C29690.4,13055 29692.3,13061.6 29696,13066.3C29699.8,13071 29705.2,13073.4 29712.2,13073.4C29719.3,13073.4 29724.8,13071 29728.5,13066.1C29732.3,13061.3 29734.1,13054.8 29734.1,13046.7C29734.1,13038.4 29732.3,13031.9 29728.5,13027.2C29724.7,13022.4 29719.3,13020.1 29712.2,13020.1C29704.9,13020.1 29699.5,13022.4 29695.9,13027.2C29692.3,13031.9 29690.4,13038.4 29690.4,13046.7Z" style="fill:rgb(42,42,42);fill-rule:nonzero;"/>
                <path d="M29821.7,13094.8C29813.4,13094.8 29806.1,13092.9 29799.9,13089L29799.9,13132.8L29776.8,13132.8L29776.8,13001.2L29797.1,13001.2L29797.1,13006.2C29803.5,13001.2 29811.4,12998.6 29820.5,12998.6C29829.1,12998.6 29836.6,13000.7 29843.2,13004.8C29849.7,13008.9 29854.8,13014.6 29858.4,13021.9C29861.9,13029.2 29863.7,13037.5 29863.7,13046.7C29863.7,13055.8 29862,13064 29858.5,13071.3C29854.9,13078.6 29850,13084.3 29843.6,13088.5C29837.2,13092.7 29829.9,13094.8 29821.7,13094.8ZM29797.1,13046.7C29797.1,13065.2 29804.1,13074.4 29818,13074.4C29825.1,13074.4 29830.4,13071.8 29834,13066.7C29837.6,13061.5 29839.4,13054.9 29839.4,13046.7C29839.4,13041.5 29838.6,13036.8 29837,13032.6C29835.4,13028.5 29832.9,13025.2 29829.6,13022.7C29826.2,13020.3 29822.1,13019 29817.2,13019C29810.2,13019 29805.2,13021.5 29801.9,13026.4C29798.7,13031.3 29797.1,13038.1 29797.1,13046.7Z" style="fill:rgb(42,42,42);fill-rule:nonzero;"/>
                <path d="M29924.6,13094.8C29915.4,13094.8 29907.2,13092.8 29900,13088.8C29892.9,13084.8 29887.3,13079.3 29883.3,13072.1C29879.2,13065 29877.2,13056.9 29877.2,13047.9C29877.2,13038.1 29879.2,13029.5 29883.1,13022C29887,13014.6 29892.4,13008.8 29899.4,13004.7C29906.4,13000.7 29914.3,12998.6 29923.3,12998.6C29932.1,12998.6 29939.7,13000.6 29946.2,13004.4C29952.6,13008.3 29957.6,13013.8 29961,13021C29964.5,13028.1 29966.2,13036.5 29966.2,13046.1C29966.2,13047.6 29966.1,13050 29965.9,13053.1L29901.9,13053.1C29902.8,13059.7 29905,13064.7 29908.7,13068.1C29912.3,13071.6 29917.2,13073.4 29923.3,13073.4C29927.7,13073.4 29931.6,13072.4 29934.8,13070.4C29938,13068.5 29940.5,13065.6 29942.2,13061.9L29965.1,13068.5C29962.9,13073.9 29959.7,13078.6 29955.6,13082.6C29951.5,13086.6 29946.8,13089.6 29941.4,13091.7C29936.1,13093.8 29930.5,13094.8 29924.6,13094.8ZM29942.7,13036.1C29941.9,13030 29940,13025.5 29937.1,13022.7C29934.1,13019.9 29929.9,13018.5 29924.3,13018.5C29912.2,13018.5 29905,13024.4 29902.5,13036.1L29942.7,13036.1Z" style="fill:rgb(42,42,42);fill-rule:nonzero;"/>
                <path d="M30044.4,13049.2C30044.4,13044.6 30044.1,13040.3 30043.4,13036.3C30042.8,13032.2 30041,13028.5 30038.1,13025.1C30035.2,13021.7 30030.8,13020.1 30024.9,13020.1C30019.6,13020.1 30015,13021.9 30011.2,13025.5C30007.4,13029.1 30005.5,13036 30005.5,13046L30005.5,13092.3L29982.2,13092.3L29982.2,13001.2L30002.6,13001.2L30002.6,13010.5C30006,13006.7 30010.2,13003.7 30015.2,13001.6C30020.1,12999.5 30025.8,12998.5 30032.1,12998.5C30042.8,12998.5 30050.8,13001.2 30056,13006.6C30061.3,13012.1 30064.6,13017.9 30065.8,13023.9C30067.1,13030 30067.7,13035.7 30067.7,13041.1L30067.7,13092.3L30044.4,13092.3L30044.4,13049.2Z" style="fill:rgb(42,42,42);fill-rule:nonzero;"/>
                <path d="M30089.7,12970.8L30163.9,12970.8L30163.9,12993.7L30112.6,12993.7L30112.6,13020.1L30153.8,13020.1L30153.8,13043L30112.6,13043L30112.6,13092.3L30089.7,13092.3L30089.7,12970.8Z" style="fill:rgb(42,42,42);fill-rule:nonzero;"/>
                <path d="M30213,13095C30202.3,13095 30194.3,13092.2 30189.1,13086.8C30183.8,13081.3 30180.6,13075.6 30179.3,13069.5C30178,13063.4 30177.4,13057.7 30177.4,13052.3L30177.4,13001.2L30200.7,13001.2L30200.7,13044.2C30200.7,13048.8 30201,13053.1 30201.7,13057.2C30202.4,13061.2 30204.2,13064.9 30207.1,13068.3C30210,13071.7 30214.4,13073.4 30220.3,13073.4C30225.5,13073.4 30230.1,13071.6 30233.9,13067.9C30237.8,13064.3 30239.7,13057.5 30239.7,13047.4L30239.7,13001.2L30262.8,13001.2L30262.8,13092.3L30242.5,13092.3L30242.5,13082.9C30239.1,13086.7 30234.9,13089.7 30230,13091.8C30225,13093.9 30219.4,13095 30213,13095Z" style="fill:rgb(42,42,42);fill-rule:nonzero;"/>
                <path d="M30272.9,13111.3L30277,13111.3C30282,13111.3 30285.5,13110.2 30287.5,13108C30289.6,13105.7 30290.6,13102.3 30290.6,13097.7L30290.6,13001.2L30313.6,13001.2L30313.6,13108.8C30313.6,13113.6 30312.5,13117.8 30310.5,13121.4C30308.4,13125.1 30305.5,13127.8 30301.7,13129.8C30297.9,13131.8 30293.5,13132.8 30288.4,13132.8L30272.9,13132.8L30272.9,13111.3ZM30290.6,12968.3L30313.6,12968.3L30313.6,12988.5L30290.6,12988.5L30290.6,12968.3Z" style="fill:rgb(42,42,42);fill-rule:nonzero;"/>
                <path d="M30338.9,12968.3L30361.8,12968.3L30361.8,12988.5L30338.9,12988.5L30338.9,12968.3ZM30338.9,13001.2L30361.8,13001.2L30361.8,13092.3L30338.9,13092.3L30338.9,13001.2Z" style="fill:rgb(42,42,42);fill-rule:nonzero;"/>
                <path d="M30449.2,13049.2C30449.2,13044.6 30448.9,13040.3 30448.2,13036.3C30447.5,13032.2 30445.8,13028.5 30442.9,13025.1C30440,13021.7 30435.6,13020.1 30429.7,13020.1C30424.4,13020.1 30419.8,13021.9 30416,13025.5C30412.2,13029.1 30410.3,13036 30410.3,13046L30410.3,13092.3L30387,13092.3L30387,13001.2L30407.4,13001.2L30407.4,13010.5C30410.8,13006.7 30415,13003.7 30420,13001.6C30424.9,12999.5 30430.6,12998.5 30436.9,12998.5C30447.6,12998.5 30455.6,13001.2 30460.8,13006.6C30466.1,13012.1 30469.4,13017.9 30470.6,13023.9C30471.9,13030 30472.5,13035.7 30472.5,13041.1L30472.5,13092.3L30449.2,13092.3L30449.2,13049.2Z" style="fill:rgb(42,42,42);fill-rule:nonzero;"/>
            </g>
            <g transform="matrix(1,0,0,1,5974.64,1497.97)">
                <path d="M19846.1,8390.08C19850.9,8383.28 19856.3,8376.81 19862.4,8370.73C19919.6,8313.55 20012.4,8313.55 20069.6,8370.73C20126.8,8427.91 20126.8,8520.75 20069.6,8577.93C20063.5,8584 20057,8589.43 20050.2,8594.22L20031.9,8576.71C20056.6,8538.22 20044.3,8479.68 20002.5,8437.83C19960.6,8395.97 19902.1,8383.75 19863.6,8408.38L19846.1,8390.08ZM19904.7,8370.29C19943.7,8369 19986.8,8385.67 20020.7,8419.57C20054.7,8453.48 20071.3,8496.6 20070,8535.57C20097.3,8489.3 20091.1,8428.7 20051.3,8388.98C20011.6,8349.26 19951,8343.03 19904.7,8370.29ZM19893.8,8440.96L19912.1,8459.21L19773.9,8597.42C19746.6,8624.72 19702.2,8624.72 19674.9,8597.42C19647.6,8570.12 19647.6,8525.79 19674.9,8498.49C19702.4,8471.01 19743.6,8469.21 19771.1,8496.69L19780.2,8505.81L19762,8524.06L19752.9,8514.94C19735.8,8497.89 19710.2,8499.69 19693.2,8516.74C19676,8533.97 19676,8561.94 19693.2,8579.17C19710.4,8596.4 19738.4,8596.4 19755.6,8579.17L19893.8,8440.96ZM19979.8,8526.92L19998,8545.17L19906.9,8636.3C19894.4,8648.82 19894.4,8669.16 19906.9,8681.69C19919.4,8694.21 19939.8,8694.21 19952.3,8681.69C19964.7,8669.34 19966.1,8650.81 19953.7,8638.46L19944.6,8629.33L19962.8,8611.08L19972,8620.21C19994.7,8642.98 19993.3,8677.17 19970.6,8699.94C19948,8722.54 19911.3,8722.54 19888.7,8699.94C19866.1,8677.34 19866.1,8640.64 19888.7,8618.04L19979.8,8526.92ZM19962.5,8459.6L19980.7,8477.85L19762.4,8696.17C19750.8,8707.8 19744.5,8720.11 19743.9,8732.18C19743.4,8743.59 19748.3,8754.47 19757.6,8763.78C19773.5,8779.66 19795.9,8781.05 19812.8,8766.23C19833.3,8748.2 19827.6,8721.81 19813.7,8707.12L19804.9,8697.73L19823.7,8680.02L19832.5,8689.41C19855.1,8713.33 19863.3,8756.27 19829.8,8785.63C19802.2,8809.92 19765.4,8808.06 19739.4,8782.03C19724.4,8767.09 19717.4,8749.35 19718.2,8731.05C19718.9,8713.41 19727.1,8694.92 19744.1,8677.92L19962.5,8459.6Z" style="fill:rgb(66,172,192);"/>
            </g>
        </g>
    </g>
</svg>
